<svg xmlns="http://www.w3.org/2000/svg" xmlns:xlink="http://www.w3.org/1999/xlink" width="1920" zoomAndPan="magnify" viewBox="0 0 1440 809.999993" height="1080" preserveAspectRatio="xMidYMid meet" version="1.0"><defs><g/><clipPath id="8d5de05f1c"><path d="M 593.90625 335.769531 L 846.09375 335.769531 L 846.09375 474.53125 L 593.90625 474.53125 Z M 593.90625 335.769531 " clip-rule="nonzero"/></clipPath><clipPath id="6e221c23f0"><path d="M 612.363281 356.042969 L 827.613281 356.042969 L 827.613281 391 L 612.363281 391 Z M 612.363281 356.042969 " clip-rule="nonzero"/></clipPath><clipPath id="f389f53240"><path d="M 612.363281 419 L 827.613281 419 L 827.613281 454.292969 L 612.363281 454.292969 Z M 612.363281 419 " clip-rule="nonzero"/></clipPath></defs><g clip-path="url(#8d5de05f1c)"><path fill="#261f1c" d="M 593.90625 335.769531 L 846.09375 335.769531 L 846.09375 474.53125 L 593.90625 474.53125 Z M 593.90625 335.769531 " fill-opacity="1" fill-rule="nonzero"/></g><g clip-path="url(#6e221c23f0)"><path fill="#794c3b" d="M 614.351562 390.761719 L 614.351562 357.53125 L 825.636719 357.53125 L 825.636719 390.761719 L 827.621094 390.761719 L 827.621094 356.042969 L 612.367188 356.042969 L 612.367188 390.761719 L 614.351562 390.761719 " fill-opacity="1" fill-rule="nonzero"/></g><g clip-path="url(#f389f53240)"><path fill="#794c3b" d="M 825.636719 419.53125 L 825.636719 452.761719 L 614.351562 452.761719 L 614.351562 419.53125 L 612.367188 419.53125 L 612.367188 454.246094 L 827.621094 454.246094 L 827.621094 419.53125 L 825.636719 419.53125 " fill-opacity="1" fill-rule="nonzero"/></g><g fill="#e8e5e3" fill-opacity="1"><g transform="translate(620.231231, 417.149999)"><g><path d="M 21.328125 -3.78125 L 15 -19.769531 C 14.371094 -21.328125 14.308594 -21.691406 14.308594 -21.871094 L 10.769531 -19.980469 L 10.199219 -19.648438 L 10.261719 -18.78125 L 3.691406 -3.628906 C 2.578125 -1.050781 1.859375 -0.480469 0.601562 -0.121094 L 0.601562 0 L 6.121094 0 L 6.121094 -0.121094 C 4.441406 -0.480469 3.238281 -1.019531 4.351562 -3.601562 L 5.011719 -5.101562 L 16.46875 -5.101562 L 17.070312 -3.601562 C 18.121094 -0.960938 16.921875 -0.300781 14.820312 -0.121094 L 14.820312 0 L 24.300781 0 L 24.300781 -0.121094 C 22.949219 -0.300781 22.410156 -1.019531 21.328125 -3.78125 Z M 5.21875 -5.640625 L 10.949219 -18.871094 L 16.261719 -5.640625 Z M 5.21875 -5.640625 "/></g></g></g><g fill="#e8e5e3" fill-opacity="1"><g transform="translate(645.131204, 417.149999)"><g><path d="M 10.769531 -14.699219 C 8.640625 -14.699219 7.019531 -13.441406 6.328125 -11.519531 L 5.941406 -11.519531 L 5.941406 -12.480469 L 6.089844 -14.699219 L 0.300781 -14.25 L 0.300781 -14.128906 C 0.929688 -14.070312 1.710938 -13.859375 2.128906 -13.589844 L 2.128906 -2.070312 L 1.980469 0 L 7.109375 0 C 6.210938 -0.601562 5.941406 -1.171875 5.941406 -2.789062 L 5.941406 -8.730469 C 6.179688 -10.800781 6.929688 -12.601562 8.308594 -12.601562 C 9.421875 -12.601562 9.988281 -11.160156 9.300781 -9.359375 L 9.421875 -9.359375 L 12.421875 -14.339844 C 11.851562 -14.609375 11.371094 -14.699219 10.769531 -14.699219 Z M 10.769531 -14.699219 "/></g></g></g><g fill="#e8e5e3" fill-opacity="1"><g transform="translate(658.001195, 417.149999)"><g><path d="M 5.820312 0.480469 L 6.449219 0.480469 L 10.589844 -0.539062 L 10.589844 -0.660156 L 6.449219 -0.539062 L 6.449219 -13.828125 L 9.988281 -13.828125 L 10.140625 -14.550781 L 6.449219 -14.550781 L 6.449219 -18.539062 L 6.691406 -19.921875 L -0.148438 -16.738281 L -0.148438 -16.558594 C 1.859375 -17.128906 2.640625 -17.308594 2.640625 -16.050781 L 2.640625 -2.070312 L 2.550781 -0.269531 Z M 5.820312 0.480469 "/></g></g></g><g fill="#e8e5e3" fill-opacity="1"><g transform="translate(669.341179, 417.149999)"><g><path d="M 3.898438 -16.921875 C 5.128906 -16.921875 6.089844 -17.878906 6.089844 -19.140625 C 6.089844 -20.371094 5.128906 -21.328125 3.898438 -21.328125 C 2.671875 -21.328125 1.710938 -20.371094 1.710938 -19.140625 C 1.710938 -17.878906 2.671875 -16.921875 3.898438 -16.921875 Z M 1.949219 0 L 7.109375 0 C 6.210938 -0.601562 5.941406 -1.171875 5.941406 -2.789062 L 5.941406 -12.480469 L 6.089844 -14.699219 L 0.300781 -14.25 L 0.300781 -14.128906 C 0.929688 -14.070312 1.710938 -13.859375 2.128906 -13.589844 L 2.128906 -2.070312 Z M 1.949219 0 "/></g></g></g><g fill="#e8e5e3" fill-opacity="1"><g transform="translate(677.351173, 417.149999)"><g><path d="M 7.019531 0.210938 C 10.738281 0.210938 13.140625 -1.800781 13.140625 -4.53125 C 13.140625 -7.050781 11.101562 -8.578125 7.679688 -9.179688 C 5.640625 -9.539062 3.988281 -10.230469 3.988281 -12.121094 C 3.988281 -12.929688 4.320312 -14.28125 6.300781 -14.28125 C 8.488281 -14.28125 10.800781 -12.539062 10.621094 -10.140625 L 10.679688 -10.140625 L 12.71875 -12.960938 C 11.609375 -13.980469 9.75 -14.730469 7.378906 -14.730469 C 3.871094 -14.730469 1.351562 -13.109375 1.351562 -10.410156 C 1.351562 -8.730469 2.28125 -6.179688 6.871094 -5.578125 C 9.421875 -5.21875 10.769531 -4.378906 10.769531 -2.550781 C 10.769531 -1.140625 9.960938 -0.300781 8.160156 -0.300781 C 5.671875 -0.300781 2.910156 -2.011719 3 -4.621094 L 2.941406 -4.621094 L 1.050781 -1.558594 C 2.25 -0.570312 4.710938 0.210938 7.019531 0.210938 Z M 7.019531 0.210938 "/></g></g></g><g fill="#e8e5e3" fill-opacity="1"><g transform="translate(691.54116, 417.149999)"><g><path d="M 16.53125 -2.460938 L 16.53125 -13.621094 C 14.609375 -14.371094 12.539062 -14.730469 10.621094 -14.730469 C 4.261719 -14.730469 1.199219 -11.011719 1.199219 -6.628906 C 1.199219 -2.460938 4.050781 0.210938 8.429688 0.210938 C 9.839844 0.210938 11.039062 -0.0898438 12 -0.601562 C 12 -0.570312 11.96875 -0.570312 11.96875 -0.570312 L 17.699219 0.359375 L 17.699219 0.269531 C 16.800781 -0.328125 16.53125 -0.839844 16.53125 -2.460938 Z M 5.011719 -8.371094 C 5.011719 -11.851562 6.449219 -14.160156 9.269531 -14.160156 C 10.710938 -14.160156 11.789062 -13.558594 12.71875 -12.539062 L 12.71875 -2.851562 C 12.71875 -2.398438 12.691406 -2.070312 12.660156 -1.769531 C 12.058594 -1.109375 11.308594 -0.75 10.320312 -0.75 C 7.289062 -0.75 5.011719 -4.019531 5.011719 -8.371094 Z M 5.011719 -8.371094 "/></g></g></g><g fill="#e8e5e3" fill-opacity="1"><g transform="translate(710.441145, 417.149999)"><g><path d="M 12.839844 0 L 18 0 C 17.101562 -0.601562 16.828125 -1.171875 16.828125 -2.789062 L 16.828125 -9.269531 C 16.828125 -13.800781 14.28125 -14.730469 12.390625 -14.730469 C 9.691406 -14.730469 7.320312 -12.988281 5.941406 -12.03125 L 5.941406 -12.480469 L 6.089844 -14.699219 L 0.300781 -14.25 L 0.300781 -14.128906 C 0.929688 -14.070312 1.710938 -13.859375 2.128906 -13.589844 L 2.128906 -2.070312 L 1.949219 0 L 7.109375 0 C 6.210938 -0.601562 5.941406 -1.171875 5.941406 -2.789062 L 5.941406 -11.308594 C 7.078125 -12.148438 8.550781 -13.351562 10.410156 -13.351562 C 11.820312 -13.351562 13.019531 -12.570312 13.019531 -9.210938 L 13.019531 -2.070312 Z M 12.839844 0 "/></g></g></g><g fill="#e8e5e3" fill-opacity="1"><g transform="translate(729.341131, 417.149999)"><g><path d="M 13.890625 -12.148438 C 16.589844 -12.75 18.421875 -14.609375 18.421875 -16.828125 C 18.421875 -20.25 14.25 -21 9.390625 -21 L 0.449219 -21 L 0.449219 -20.851562 C 1.679688 -20.699219 2.730469 -20.371094 2.730469 -19.289062 L 2.730469 -2.308594 C 2.730469 -1.230469 1.679688 -0.601562 0.449219 -0.148438 L 0.449219 0 L 10.589844 0 C 16.230469 0 20.398438 -2.640625 20.398438 -6.839844 C 20.398438 -10.140625 17.730469 -11.761719 13.890625 -12.148438 Z M 9.238281 -20.519531 C 12.929688 -20.519531 14.398438 -18.269531 14.398438 -15.421875 C 14.398438 -12.660156 13.019531 -12.238281 11.398438 -12.238281 L 6.839844 -12.238281 L 6.839844 -20.519531 Z M 10.890625 -0.480469 C 9.480469 -0.480469 8.28125 -0.71875 6.839844 -1.171875 L 6.839844 -11.730469 L 9.960938 -11.730469 C 15.601562 -11.730469 16.320312 -8.609375 16.320312 -5.671875 C 16.320312 -1.230469 14.761719 -0.480469 10.890625 -0.480469 Z M 10.890625 -0.480469 "/></g></g></g><g fill="#e8e5e3" fill-opacity="1"><g transform="translate(750.941109, 417.149999)"><g><path d="M 10.769531 -14.699219 C 8.640625 -14.699219 7.019531 -13.441406 6.328125 -11.519531 L 5.941406 -11.519531 L 5.941406 -12.480469 L 6.089844 -14.699219 L 0.300781 -14.25 L 0.300781 -14.128906 C 0.929688 -14.070312 1.710938 -13.859375 2.128906 -13.589844 L 2.128906 -2.070312 L 1.980469 0 L 7.109375 0 C 6.210938 -0.601562 5.941406 -1.171875 5.941406 -2.789062 L 5.941406 -8.730469 C 6.179688 -10.800781 6.929688 -12.601562 8.308594 -12.601562 C 9.421875 -12.601562 9.988281 -11.160156 9.300781 -9.359375 L 9.421875 -9.359375 L 12.421875 -14.339844 C 11.851562 -14.609375 11.371094 -14.699219 10.769531 -14.699219 Z M 10.769531 -14.699219 "/></g></g></g><g fill="#e8e5e3" fill-opacity="1"><g transform="translate(763.8111, 417.149999)"><g><path d="M 15.628906 -2.941406 C 14.699219 -1.710938 12.628906 -1.261719 11.191406 -1.261719 C 7.589844 -1.261719 5.160156 -4.078125 5.101562 -8.339844 L 13.019531 -8.339844 C 16.859375 -8.339844 16.320312 -14.730469 9.839844 -14.730469 C 5.371094 -14.730469 1.199219 -11.878906 1.199219 -7.050781 C 1.199219 -2.761719 4.46875 0.210938 9.269531 0.210938 C 12.449219 0.210938 14.878906 -1.140625 15.78125 -2.820312 Z M 8.851562 -14.25 C 12.328125 -14.25 13.171875 -8.941406 11.128906 -8.910156 L 5.101562 -8.851562 C 5.21875 -12.210938 6.808594 -14.25 8.851562 -14.25 Z M 8.851562 -14.25 "/></g></g></g><g fill="#e8e5e3" fill-opacity="1"><g transform="translate(780.251086, 417.149999)"><g><path d="M 20.128906 -14.488281 L 20.128906 -14.371094 C 21.210938 -14.011719 22.46875 -13.46875 21.328125 -10.890625 L 18.328125 -3.960938 L 15.148438 -10.890625 C 13.980469 -13.46875 15.210938 -14.191406 16.710938 -14.371094 L 16.710938 -14.488281 L 9.480469 -14.488281 L 10.710938 -12.449219 L 12.03125 -9.660156 L 9.601562 -4.019531 L 6.390625 -10.949219 C 5.21875 -13.53125 6.449219 -14.25 8.070312 -14.429688 L 8.070312 -14.550781 L 0.75 -14.550781 L 1.980469 -12.511719 L 8.039062 0.359375 L 8.21875 0.359375 L 12.328125 -9 L 16.769531 0.421875 L 16.980469 0.421875 L 21.929688 -10.859375 C 23.039062 -13.441406 23.761719 -14.011719 24.71875 -14.371094 L 24.71875 -14.488281 Z M 20.128906 -14.488281 "/></g></g></g><g fill="#e8e5e3" fill-opacity="1"><g transform="translate(805.571058, 417.149999)"><g><path d="M 7.019531 0.210938 C 10.738281 0.210938 13.140625 -1.800781 13.140625 -4.53125 C 13.140625 -7.050781 11.101562 -8.578125 7.679688 -9.179688 C 5.640625 -9.539062 3.988281 -10.230469 3.988281 -12.121094 C 3.988281 -12.929688 4.320312 -14.28125 6.300781 -14.28125 C 8.488281 -14.28125 10.800781 -12.539062 10.621094 -10.140625 L 10.679688 -10.140625 L 12.71875 -12.960938 C 11.609375 -13.980469 9.75 -14.730469 7.378906 -14.730469 C 3.871094 -14.730469 1.351562 -13.109375 1.351562 -10.410156 C 1.351562 -8.730469 2.28125 -6.179688 6.871094 -5.578125 C 9.421875 -5.21875 10.769531 -4.378906 10.769531 -2.550781 C 10.769531 -1.140625 9.960938 -0.300781 8.160156 -0.300781 C 5.671875 -0.300781 2.910156 -2.011719 3 -4.621094 L 2.941406 -4.621094 L 1.050781 -1.558594 C 2.25 -0.570312 4.710938 0.210938 7.019531 0.210938 Z M 7.019531 0.210938 "/></g></g></g></svg>